<?xml version="1.0" standalone="no"?><!DOCTYPE svg PUBLIC "-//W3C//DTD SVG 1.1//EN" "http://www.w3.org/Graphics/SVG/1.1/DTD/svg11.dtd"><svg height="1576" node-id="1" sillyvg="true" template-height="1576" template-width="1183" version="1.1" viewBox="0 0 1183 1576" width="1183" xmlns="http://www.w3.org/2000/svg" xmlns:xlink="http://www.w3.org/1999/xlink"><defs node-id="73"></defs><path d="M 0.00 0.00 L 1182.67 0.00 L 1182.67 1576.00 L 0.00 1576.00 Z" fill="#ffffff" fill-rule="nonzero" node-id="75" stroke="none" target-height="1576" target-width="1182.67" target-x="0" target-y="0"></path><path d="M 820.01 305.25 C 834.23 303.79 850.03 306.48 860.61 316.79 C 870.36 326.16 874.29 339.77 876.17 352.79 C 878.61 371.63 877.27 390.83 873.37 409.39 C 868.36 430.20 861.72 450.89 850.72 469.37 C 846.33 476.01 842.03 482.76 836.85 488.83 C 835.68 490.01 835.16 491.57 834.71 493.13 C 847.96 503.36 860.25 515.29 868.68 529.89 C 878.95 545.72 882.83 565.67 878.33 584.09 C 876.32 594.65 871.05 604.11 865.68 613.28 C 879.99 628.33 891.85 646.25 896.79 666.64 C 901.59 686.04 899.23 707.92 887.51 724.49 C 884.33 729.31 880.44 733.61 876.12 737.43 C 881.56 746.20 887.45 755.00 890.04 765.13 C 895.43 782.53 893.27 802.64 882.76 817.72 C 887.57 816.17 892.59 815.16 897.67 815.15 C 903.64 805.07 908.17 794.24 913.13 783.65 C 925.95 757.75 938.25 731.61 950.95 705.65 C 953.39 700.88 955.17 695.73 958.24 691.32 C 960.52 688.45 964.79 689.52 967.72 690.69 C 1013.51 711.67 1059.32 732.61 1105.09 753.56 C 1108.81 755.43 1111.68 759.87 1109.51 763.99 C 1101.76 777.60 1095.53 792.01 1088.41 805.96 C 1076.37 830.35 1065.03 855.07 1052.55 879.24 C 1039.43 907.63 1024.77 935.31 1011.77 963.75 C 1010.07 966.45 1008.53 969.69 1005.45 971.09 C 1001.52 972.27 997.56 970.59 994.13 968.79 C 985.43 964.09 976.12 960.68 967.25 956.32 C 950.24 947.97 932.65 940.84 915.72 932.35 C 890.17 961.92 859.25 986.21 827.65 1008.97 C 817.31 1016.71 805.91 1022.88 795.29 1030.23 C 806.95 1071.25 816.84 1113.21 818.11 1156.03 C 819.29 1179.16 818.04 1202.39 814.81 1225.32 C 810.68 1262.84 800.99 1299.39 792.39 1336.04 C 787.53 1358.00 780.99 1379.53 776.29 1401.52 C 774.31 1415.68 768.71 1431.03 755.37 1438.17 C 743.87 1443.96 730.69 1445.25 718.03 1446.29 C 704.92 1446.49 691.75 1447.03 678.69 1445.72 C 666.37 1444.43 653.57 1438.52 647.65 1427.11 C 641.32 1414.93 640.57 1400.84 639.36 1387.44 L 640.25 1386.33 C 639.92 1386.20 639.24 1385.95 638.91 1385.81 C 635.59 1357.41 630.81 1329.21 627.19 1300.85 C 609.19 1304.13 590.77 1304.15 572.63 1302.19 C 567.87 1331.11 562.40 1359.96 559.39 1389.13 C 557.79 1402.39 558.01 1416.57 550.99 1428.41 C 545.49 1438.05 534.80 1443.40 524.24 1445.41 C 507.59 1448.09 490.64 1447.48 473.85 1446.73 C 461.89 1445.84 448.93 1444.52 439.13 1436.92 C 427.47 1427.81 422.92 1412.85 419.75 1399.00 C 408.73 1354.61 398.49 1310.04 389.03 1265.29 C 386.99 1253.33 383.71 1241.56 382.68 1229.45 C 362.31 1248.99 335.41 1263.68 306.64 1263.75 C 285.23 1263.67 263.07 1255.67 248.76 1239.29 C 246.00 1236.15 243.64 1231.16 246.19 1227.25 C 249.43 1223.76 253.87 1221.59 258.31 1220.03 C 247.75 1214.40 241.04 1203.69 236.76 1192.85 C 234.09 1185.99 233.77 1176.99 239.81 1171.77 C 243.99 1167.37 250.63 1168.51 255.80 1170.13 C 263.00 1172.43 270.63 1172.83 278.11 1172.08 C 279.75 1157.11 286.53 1142.52 298.05 1132.64 C 310.71 1121.64 328.85 1117.57 345.05 1121.67 C 357.41 1124.43 368.69 1130.35 379.87 1136.04 C 384.52 1100.91 394.56 1066.81 405.45 1033.19 C 386.83 1026.79 369.64 1016.87 352.09 1008.03 C 320.16 989.40 287.91 970.12 261.89 943.49 C 257.23 939.23 252.35 935.20 247.97 930.63 C 235.76 934.96 224.13 940.80 212.00 945.36 C 199.88 950.63 187.47 955.16 175.40 960.53 C 170.56 962.60 165.04 965.51 159.85 962.80 C 161.48 958.13 164.48 954.21 169.07 952.16 C 167.36 952.07 165.67 951.97 163.97 951.89 L 165.61 949.01 C 166.55 949.83 167.51 950.61 168.47 951.40 C 180.80 945.35 193.88 941.08 206.39 935.43 C 219.65 929.16 233.65 924.68 247.05 918.69 C 242.97 910.56 237.81 902.57 237.04 893.29 C 235.75 884.56 237.39 875.73 240.40 867.53 C 246.08 854.80 256.76 844.44 270.09 840.08 C 272.76 839.55 275.48 839.33 278.20 839.08 C 277.01 834.64 274.99 830.51 273.05 826.36 C 271.37 822.52 269.84 818.61 268.27 814.73 C 267.41 812.57 266.48 810.47 265.60 808.33 C 266.83 806.77 268.05 805.21 269.29 803.67 C 267.73 802.55 266.19 801.40 264.64 800.29 C 267.01 797.72 269.45 795.21 271.96 792.79 C 276.52 803.16 280.67 813.71 285.19 824.11 C 291.76 823.80 298.08 825.53 304.49 826.63 C 293.80 810.32 289.44 789.55 294.65 770.53 C 297.57 760.23 301.89 750.08 308.52 741.57 C 295.27 731.35 287.59 715.05 286.00 698.60 C 284.59 680.40 289.09 661.89 298.08 646.05 C 302.55 637.48 308.88 630.12 314.71 622.45 C 302.96 607.36 298.16 587.64 299.83 568.76 C 301.15 554.91 306.63 541.69 314.08 530.07 C 324.03 516.69 335.96 504.39 350.55 496.11 C 325.33 464.76 312.65 424.12 313.55 384.04 C 313.68 373.16 315.23 362.28 318.51 351.89 C 323.36 336.48 337.48 324.81 353.21 321.81 C 366.73 318.88 380.71 321.68 393.49 326.33 C 419.92 336.68 442.91 354.67 461.01 376.35 C 462.80 378.57 464.41 380.95 466.51 382.89 C 475.16 373.72 486.32 366.57 498.73 363.88 C 506.13 362.23 513.76 362.96 521.20 363.85 C 527.35 350.24 539.91 340.31 553.43 334.57 C 575.07 325.63 600.28 326.51 621.63 335.87 C 632.76 340.31 643.67 346.68 650.65 356.69 C 661.03 351.31 673.47 352.20 684.29 355.71 C 697.03 360.31 709.48 368.05 716.11 380.27 C 729.83 362.16 745.23 345.13 763.33 331.31 C 779.95 318.68 798.80 307.31 820.01 305.25 Z M 818.05 323.65 C 796.37 328.45 777.99 341.91 761.60 356.31 C 742.51 373.89 727.25 395.11 713.85 417.24 C 719.52 430.04 718.47 445.65 710.57 457.28 C 705.91 464.11 697.75 469.20 689.25 468.03 C 679.60 467.09 671.64 461.07 663.71 456.07 C 662.93 471.53 656.16 487.83 642.47 496.07 C 634.84 500.76 624.95 498.41 618.53 492.73 C 613.04 501.36 601.35 502.56 592.32 499.76 C 578.13 495.36 564.27 487.33 556.00 474.68 C 550.52 479.49 545.55 484.92 539.39 488.92 C 533.40 493.40 526.43 497.27 518.71 497.11 C 509.51 497.75 501.32 492.47 494.85 486.47 C 487.01 478.01 485.83 465.65 487.77 454.73 C 480.80 452.47 473.71 448.51 470.55 441.55 C 467.47 435.67 469.15 428.88 469.51 422.61 C 460.45 402.77 446.19 385.77 430.61 370.71 C 413.39 355.96 393.55 342.77 370.80 338.91 C 362.36 337.17 353.24 338.64 346.04 343.45 C 339.47 348.23 335.64 355.97 334.15 363.81 C 327.55 393.77 333.91 425.08 345.64 452.93 C 357.17 479.41 377.31 503.04 404.00 514.92 C 400.93 522.28 396.57 529.09 394.03 536.72 C 385.67 559.32 379.11 582.69 375.96 606.61 C 372.79 623.84 372.27 641.39 370.89 658.80 C 370.44 669.49 364.01 678.44 360.28 688.12 C 353.83 702.55 348.80 717.64 345.93 733.20 C 341.80 754.00 344.25 775.72 350.92 795.73 C 354.83 806.56 359.89 817.09 367.19 826.07 C 377.07 839.55 390.81 849.59 405.16 857.84 C 431.68 871.67 460.44 880.60 489.31 888.00 C 490.96 888.65 493.31 888.59 494.19 890.45 C 484.53 896.03 472.79 893.12 462.23 893.12 C 459.17 899.11 456.71 905.37 453.40 911.24 C 452.39 913.12 451.35 915.01 450.21 916.84 C 450.75 912.01 445.76 911.07 442.39 909.56 C 404.21 894.29 366.15 878.51 329.49 859.88 C 331.79 867.20 331.97 875.05 331.04 882.61 C 327.12 902.85 313.85 920.15 297.25 931.89 C 292.17 935.11 286.79 937.92 280.96 939.48 C 293.52 949.93 306.48 959.97 319.96 969.25 C 339.73 981.97 360.27 993.47 381.24 1004.09 C 396.03 1011.69 411.55 1017.73 426.49 1024.99 C 417.01 1048.75 410.36 1073.64 405.00 1098.67 C 397.35 1132.29 392.92 1167.07 396.83 1201.52 C 403.00 1261.17 419.43 1319.05 433.48 1377.17 C 463.40 1371.79 493.92 1374.11 523.97 1376.99 C 529.28 1377.91 534.71 1378.20 539.97 1379.40 C 542.36 1366.31 544.29 1353.15 546.55 1340.04 C 549.60 1324.60 552.73 1309.17 555.99 1293.77 C 548.45 1289.97 539.40 1286.80 535.03 1279.11 C 540.75 1279.31 546.29 1280.95 551.91 1282.01 C 586.15 1289.36 622.07 1288.91 656.00 1280.09 C 661.69 1279.27 667.27 1276.61 673.05 1277.04 C 664.07 1284.11 654.48 1290.59 643.68 1294.52 C 647.96 1323.68 653.17 1352.69 658.37 1381.69 C 665.52 1380.01 672.83 1379.31 680.11 1378.48 C 692.45 1377.77 704.76 1376.72 717.12 1376.49 C 731.92 1376.24 747.03 1375.77 761.43 1379.81 C 771.47 1341.89 781.84 1303.99 789.28 1265.44 C 797.29 1227.80 802.67 1189.20 799.88 1150.65 C 797.73 1106.89 788.51 1063.67 774.48 1022.24 C 780.83 1018.45 787.17 1014.67 793.56 1010.92 C 811.13 1000.76 827.35 988.49 843.48 976.23 C 862.53 960.75 881.41 944.95 898.32 927.08 C 892.09 925.07 886.16 922.24 880.73 918.57 C 868.13 910.05 857.01 898.35 852.23 883.64 C 848.21 872.79 848.37 860.24 853.68 849.85 C 831.75 861.64 809.72 873.23 787.92 885.25 C 772.37 894.13 756.33 902.25 741.80 912.80 C 737.51 904.84 733.71 896.63 729.80 888.48 C 710.69 893.15 690.87 894.55 671.31 892.59 C 669.53 892.03 667.77 891.48 666.03 890.95 C 681.36 886.47 696.92 882.88 712.47 879.25 C 727.61 874.75 742.79 870.13 757.15 863.43 C 778.75 854.49 798.72 840.93 813.49 822.67 C 820.61 812.52 826.71 801.57 830.64 789.77 C 833.53 781.05 835.51 772.04 836.63 762.92 C 839.91 738.15 834.84 712.97 825.96 689.85 C 822.00 679.33 816.87 669.28 813.23 658.65 C 810.43 650.55 810.12 641.91 808.95 633.49 C 804.97 601.52 800.45 569.37 790.48 538.63 C 787.76 528.31 783.60 518.45 778.84 508.93 C 789.48 504.64 799.11 498.05 808.00 490.88 C 824.65 477.55 836.00 458.85 844.44 439.53 C 855.56 412.39 861.47 382.51 857.71 353.21 C 856.00 344.56 853.93 335.13 846.91 329.12 C 839.37 321.59 827.77 322.16 818.05 323.65 Z M 547.12 359.05 C 539.49 365.27 535.55 374.81 534.55 384.43 C 528.57 384.08 523.17 381.03 517.20 380.68 C 503.28 379.23 487.52 385.56 481.45 398.83 C 477.99 405.48 481.31 412.91 483.47 419.43 C 486.01 426.11 488.57 434.48 496.16 436.89 C 501.61 437.12 505.32 431.89 510.37 430.56 C 505.19 441.25 500.12 453.37 503.36 465.43 C 505.19 473.09 511.65 480.48 520.05 480.23 C 528.41 479.05 534.92 473.08 540.64 467.35 C 548.72 458.71 552.84 447.43 557.99 437.00 C 559.28 443.25 560.31 449.65 563.29 455.39 C 569.84 469.08 583.29 478.16 597.44 482.67 C 600.67 483.33 604.16 484.96 607.41 483.53 C 607.08 474.75 607.49 465.92 609.64 457.36 C 612.59 457.96 613.79 461.03 615.44 463.19 C 619.99 470.12 625.24 477.51 633.29 480.55 C 637.93 482.03 641.33 477.59 643.68 474.27 C 652.43 460.52 653.20 443.60 652.45 427.79 C 654.03 428.25 655.71 428.56 657.13 429.47 C 667.67 436.16 676.27 446.04 688.19 450.41 C 690.16 450.91 692.77 452.45 694.55 450.64 C 702.93 444.15 704.68 432.69 704.95 422.75 C 705.43 412.31 707.85 400.68 702.09 391.21 C 690.59 372.85 663.68 364.56 645.01 377.09 C 638.88 369.65 632.25 362.40 623.89 357.44 C 614.12 351.73 603.17 348.04 591.95 346.63 C 576.23 344.79 559.37 348.79 547.12 359.05 Z M 798.60 518.00 C 806.87 535.57 812.37 554.31 816.23 573.31 C 822.07 595.19 823.40 617.88 827.00 640.16 C 827.89 646.96 829.20 653.76 831.87 660.12 C 841.91 684.03 852.64 708.29 854.75 734.47 C 857.25 733.19 858.35 730.19 860.65 728.55 C 871.47 718.76 879.53 705.51 880.80 690.76 C 883.77 673.81 877.04 656.87 867.47 643.15 C 859.79 632.43 852.11 621.65 843.24 611.87 C 851.00 604.04 856.36 594.08 859.88 583.71 C 864.95 569.33 862.61 552.89 854.64 540.01 C 846.79 525.05 833.91 513.84 821.96 502.25 C 814.68 508.17 807.39 514.44 798.60 518.00 Z M 325.17 545.17 C 317.88 558.69 314.75 575.00 319.04 590.00 C 321.56 601.52 328.65 611.31 336.16 620.13 C 326.16 634.85 314.01 648.64 308.13 665.72 L 307.85 665.76 C 300.33 682.52 301.39 702.79 311.28 718.36 C 315.27 725.60 321.48 731.11 327.57 736.52 C 320.39 752.13 310.79 767.65 310.19 785.31 C 310.00 808.39 321.99 830.83 340.36 844.55 C 348.64 849.55 357.47 853.57 366.13 857.85 C 370.55 859.61 374.61 862.61 379.49 862.89 C 377.79 859.76 374.12 858.68 371.83 856.09 C 359.44 843.48 348.63 829.25 340.73 813.41 C 330.13 793.40 326.28 770.44 326.99 747.99 C 327.21 742.49 329.13 737.21 329.08 731.71 C 332.64 711.65 340.17 692.47 348.83 674.11 C 355.09 663.85 355.13 651.56 356.16 639.97 C 358.11 617.73 360.28 595.40 365.83 573.72 C 370.00 556.49 376.13 539.80 383.36 523.64 C 375.19 519.20 367.95 513.32 361.05 507.13 C 348.04 518.71 334.04 529.89 325.17 545.17 Z M 962.52 713.43 C 964.33 730.81 973.37 746.53 984.08 759.99 C 985.52 761.39 986.83 763.73 989.15 763.55 C 992.63 761.28 996.07 758.84 1000.13 757.77 C 1009.40 754.41 1020.17 758.23 1026.31 765.67 C 1030.63 770.59 1031.56 777.49 1031.37 783.81 C 1052.89 784.37 1074.35 778.43 1092.88 767.59 C 1094.92 766.55 1095.79 764.33 1096.93 762.49 C 1087.91 757.69 1078.15 754.43 1069.09 749.68 C 1056.56 744.63 1044.63 738.24 1032.07 733.25 C 1009.69 722.69 987.20 712.44 964.93 701.68 C 962.65 705.11 962.76 709.47 962.52 713.43 Z M 952.60 729.05 L 952.71 729.56 C 947.64 737.96 944.00 747.08 939.95 755.99 C 935.56 765.71 930.49 775.09 925.92 784.73 C 919.89 798.72 912.63 812.11 905.97 825.80 C 905.09 827.41 904.63 829.20 904.25 831.01 C 913.17 832.04 920.69 837.71 927.24 843.49 C 937.19 853.03 942.32 866.68 943.49 880.23 C 941.89 883.48 941.99 887.17 941.09 890.63 C 938.73 902.97 930.37 913.05 921.37 921.36 C 925.25 924.41 930.35 925.47 934.61 927.96 C 955.12 937.48 975.39 947.55 995.95 956.93 C 997.43 957.77 998.87 958.65 1000.33 959.57 C 1003.36 955.80 1004.68 951.08 1006.84 946.83 C 1011.56 936.57 1017.12 926.72 1021.53 916.33 C 1034.44 889.32 1048.29 862.77 1060.75 835.55 C 1065.77 824.31 1071.48 813.39 1076.87 802.31 C 1081.13 795.37 1083.40 787.23 1088.11 780.48 C 1084.51 780.57 1081.39 782.52 1078.12 783.79 C 1067.37 788.63 1055.63 790.49 1044.01 791.88 C 1039.07 792.84 1034.04 792.53 1029.05 792.43 C 1028.09 794.44 1027.04 796.41 1025.91 798.36 C 1023.41 800.64 1021.03 803.15 1017.92 804.57 C 1002.97 812.63 982.41 800.49 980.88 783.96 C 980.53 779.69 981.91 775.55 983.56 771.69 C 978.43 766.84 974.17 761.17 969.36 756.04 C 964.35 745.56 957.55 735.56 956.21 723.72 C 955.03 725.51 953.80 727.28 952.60 729.05 Z M 855.03 734.33 C 857.32 764.52 851.43 795.72 835.23 821.56 L 835.35 821.88 C 827.19 835.15 816.35 846.52 805.31 857.40 C 817.08 851.05 828.60 844.24 840.40 837.95 C 851.73 831.76 864.05 824.61 869.43 812.21 C 875.52 800.43 876.71 786.55 874.37 773.63 C 872.09 762.24 865.20 752.72 859.84 742.68 C 858.12 739.97 858.20 735.83 855.03 734.33 Z M 990.64 769.23 C 988.29 773.31 985.80 777.71 986.15 782.59 C 986.12 788.56 990.05 793.71 994.67 797.08 C 998.92 800.08 1004.29 802.53 1009.59 801.07 C 1022.48 799.41 1031.91 782.84 1024.73 771.40 C 1020.28 764.09 1011.16 758.92 1002.56 761.39 C 997.76 762.48 993.91 765.71 990.64 769.23 Z M 863.33 845.73 C 858.41 849.71 855.80 856.25 856.63 862.55 C 857.91 875.28 865.27 886.45 873.33 896.00 C 880.21 902.91 888.32 910.57 898.72 910.61 C 912.83 909.04 924.99 896.89 926.39 882.72 C 927.59 866.91 916.88 851.71 902.57 845.60 C 897.25 843.41 891.53 845.19 886.05 845.43 L 885.33 844.08 C 886.44 840.13 887.91 836.29 889.68 832.60 C 879.63 833.64 870.80 839.25 863.33 845.73 Z M 294.00 841.05 C 294.81 845.40 297.48 849.17 297.95 853.60 C 292.24 852.09 286.20 851.03 280.36 852.47 C 268.57 855.45 258.97 864.83 254.56 876.01 C 250.03 886.87 252.56 900.13 260.36 908.87 C 265.87 915.01 272.45 920.60 280.33 923.40 C 284.60 925.12 288.81 922.60 292.24 920.24 C 304.75 911.29 314.21 898.68 321.05 885.03 C 324.73 877.11 326.12 867.25 322.04 859.25 C 315.67 849.76 304.99 843.64 294.00 841.05 Z M 746.16 884.88 C 746.69 886.00 746.15 888.32 748.21 887.89 C 751.73 886.31 755.15 884.29 757.99 881.64 C 753.81 881.55 750.12 883.85 746.16 884.88 Z M 422.29 884.04 C 428.73 887.16 435.20 890.91 442.44 891.65 C 436.60 887.47 429.24 885.59 422.29 884.04 Z M 315.09 1143.00 C 306.04 1149.44 297.93 1158.97 297.16 1170.49 C 300.68 1171.73 304.33 1172.49 307.89 1173.57 C 306.69 1177.89 303.31 1181.12 300.00 1183.93 C 291.89 1190.21 281.36 1192.24 271.31 1191.71 C 265.85 1191.59 260.39 1190.93 255.25 1189.01 C 258.87 1197.93 265.05 1206.20 273.13 1211.57 C 282.43 1218.53 293.21 1223.00 304.24 1226.39 C 301.65 1228.41 299.04 1230.41 296.48 1232.48 C 290.36 1235.33 284.01 1237.89 277.19 1238.39 C 277.95 1239.13 278.83 1239.75 279.81 1240.20 C 293.95 1246.08 310.04 1247.49 324.89 1243.69 C 333.88 1242.41 342.13 1237.81 350.07 1233.56 C 361.09 1227.39 370.95 1219.35 379.95 1210.52 C 379.19 1203.83 378.40 1197.13 378.03 1190.43 C 377.76 1182.36 377.57 1174.29 377.79 1166.23 C 378.01 1162.39 378.20 1158.55 377.95 1154.72 C 365.89 1149.20 354.53 1141.81 341.48 1138.77 C 332.57 1136.85 322.71 1137.61 315.09 1143.00 Z M 435.85 1382.88 C 436.93 1392.88 440.63 1402.45 443.88 1411.95 C 445.75 1417.85 451.41 1421.44 457.33 1422.31 C 478.01 1425.64 499.12 1425.76 519.97 1424.08 C 525.91 1423.37 533.49 1422.23 535.63 1415.64 C 538.51 1406.76 538.49 1397.24 539.12 1388.03 C 524.37 1383.24 508.79 1382.07 493.44 1380.72 C 474.24 1379.85 454.87 1379.67 435.85 1382.88 Z M 703.97 1383.44 C 688.91 1384.56 673.52 1386.04 659.32 1391.52 C 660.44 1399.41 660.55 1407.68 663.65 1415.15 C 665.85 1420.48 672.21 1421.81 677.33 1422.63 C 693.67 1424.55 710.21 1424.16 726.59 1422.93 C 735.31 1421.99 745.55 1421.32 751.63 1414.16 C 756.05 1405.09 757.31 1394.87 759.73 1385.16 C 741.39 1381.73 722.53 1381.96 703.97 1383.44 Z" fill="#030200" fill-rule="nonzero" node-id="77" stroke="none" target-height="1144.303" target-width="951.827" target-x="159.853" target-y="303.787"></path><path d="M 818.05 323.65 C 827.77 322.16 839.37 321.59 846.91 329.12 C 853.93 335.13 856.00 344.56 857.71 353.21 C 861.47 382.51 855.56 412.39 844.44 439.53 C 836.00 458.85 824.65 477.55 808.00 490.88 C 799.11 498.05 789.48 504.64 778.84 508.93 C 783.60 518.45 787.76 528.31 790.48 538.63 C 800.45 569.37 804.97 601.52 808.95 633.49 C 810.12 641.91 810.43 650.55 813.23 658.65 C 816.87 669.28 822.00 679.33 825.96 689.85 C 834.84 712.97 839.91 738.15 836.63 762.92 C 835.51 772.04 833.53 781.05 830.64 789.77 C 830.00 788.45 829.36 787.13 828.73 785.83 C 821.72 796.11 815.33 807.00 805.95 815.36 C 790.80 830.91 771.77 842.09 752.01 850.72 C 737.61 856.65 723.11 862.48 707.96 866.20 C 699.33 868.03 691.11 871.29 682.48 873.05 C 672.79 875.09 663.00 876.65 653.21 878.08 C 626.77 881.69 600.01 882.93 573.36 881.53 C 532.51 879.92 491.68 873.97 452.51 862.11 C 438.87 857.07 424.83 852.67 412.37 845.00 C 388.40 831.20 367.81 811.60 352.71 788.47 C 352.13 790.88 351.53 793.31 350.92 795.73 C 344.25 775.72 341.80 754.00 345.93 733.20 C 348.80 717.64 353.83 702.55 360.28 688.12 C 364.01 678.44 370.44 669.49 370.89 658.80 C 372.27 641.39 372.79 623.84 375.96 606.61 C 379.11 582.69 385.67 559.32 394.03 536.72 C 396.57 529.09 400.93 522.28 404.00 514.92 C 377.31 503.04 357.17 479.41 345.64 452.93 C 333.91 425.08 327.55 393.77 334.15 363.81 C 335.64 355.97 339.47 348.23 346.04 343.45 C 353.24 338.64 362.36 337.17 370.80 338.91 C 393.55 342.77 413.39 355.96 430.61 370.71 C 446.19 385.77 460.45 402.77 469.51 422.61 C 469.15 428.88 467.47 435.67 470.55 441.55 C 473.71 448.51 480.80 452.47 487.77 454.73 C 485.83 465.65 487.01 478.01 494.85 486.47 C 501.32 492.47 509.51 497.75 518.71 497.11 C 526.43 497.27 533.40 493.40 539.39 488.92 C 545.55 484.92 550.52 479.49 556.00 474.68 C 564.27 487.33 578.13 495.36 592.32 499.76 C 601.35 502.56 613.04 501.36 618.53 492.73 C 624.95 498.41 634.84 500.76 642.47 496.07 C 656.16 487.83 662.93 471.53 663.71 456.07 C 671.64 461.07 679.60 467.09 689.25 468.03 C 697.75 469.20 705.91 464.11 710.57 457.28 C 718.47 445.65 719.52 430.04 713.85 417.24 C 727.25 395.11 742.51 373.89 761.60 356.31 C 777.99 341.91 796.37 328.45 818.05 323.65 Z M 814.08 356.87 C 795.85 367.81 780.93 383.63 769.39 401.37 C 759.05 417.12 750.49 434.47 747.39 453.20 C 747.05 458.43 745.49 464.52 749.13 468.99 C 751.13 468.40 752.49 466.81 753.21 464.92 C 756.81 468.24 761.37 470.37 764.64 474.07 C 767.28 477.01 768.96 480.63 770.93 484.01 C 786.79 477.17 800.05 465.52 810.49 451.88 C 825.36 433.67 834.63 411.05 836.75 387.63 C 838.01 378.07 837.71 368.09 834.25 359.01 C 833.00 355.57 829.63 352.29 825.77 352.67 C 821.43 352.33 817.77 355.04 814.08 356.87 Z M 356.32 368.36 C 352.43 373.09 351.41 379.47 350.47 385.35 C 347.45 414.05 359.41 442.95 379.19 463.52 C 390.01 474.59 402.72 484.67 417.69 489.28 C 419.67 482.44 423.61 475.48 430.57 472.77 C 432.88 472.05 434.37 470.19 435.64 468.24 C 436.36 469.11 437.80 470.84 438.53 471.72 C 441.68 470.56 441.69 466.72 441.57 463.95 C 440.92 456.93 438.76 450.17 436.28 443.63 C 427.21 420.56 412.55 399.63 393.80 383.40 C 385.53 376.97 376.76 370.73 366.72 367.48 C 366.41 367.08 365.80 366.28 365.49 365.88 C 362.24 365.53 358.57 365.61 356.32 368.36 Z M 673.44 596.21 C 667.37 599.59 661.44 603.75 657.63 609.68 C 653.65 615.64 659.77 624.48 666.68 623.57 C 671.95 622.89 677.19 621.47 682.55 622.07 C 696.43 623.39 709.56 628.85 721.47 635.92 C 724.52 637.12 728.24 640.79 731.41 638.01 C 734.85 635.19 738.32 630.60 736.63 625.93 C 734.05 621.17 729.16 618.25 724.61 615.64 C 713.88 610.03 702.28 605.76 690.23 604.23 C 698.24 601.53 706.27 598.73 714.60 597.16 C 719.65 595.95 724.92 595.55 729.83 593.75 C 732.87 591.73 732.69 586.87 730.59 584.21 C 728.23 581.75 724.59 581.01 721.32 581.04 C 704.47 582.40 688.21 588.13 673.44 596.21 Z M 446.33 596.05 C 447.43 599.31 451.21 599.89 454.07 600.80 C 464.92 603.39 475.89 605.49 486.71 608.27 C 471.73 613.04 456.17 618.73 444.91 630.13 C 440.59 634.01 440.91 641.67 445.83 644.88 C 448.87 647.48 452.89 645.52 455.87 643.87 C 467.83 636.16 480.89 630.00 494.73 626.57 C 500.77 624.88 507.03 626.53 513.15 625.99 C 518.53 625.11 523.65 620.25 523.05 614.49 C 521.99 608.96 516.65 605.89 512.09 603.43 C 496.67 595.53 479.93 590.23 462.84 587.43 C 459.28 586.91 455.61 586.55 452.07 587.23 C 448.21 588.04 445.21 592.09 446.33 596.05 Z M 751.89 646.59 C 741.32 646.60 731.35 650.28 721.56 653.87 C 718.52 655.44 716.04 657.96 713.79 660.51 C 712.65 662.88 711.72 665.36 709.53 667.01 C 706.91 669.05 709.35 671.95 710.57 673.97 C 709.17 675.16 707.57 676.05 705.92 676.84 C 706.61 677.13 707.99 677.73 708.67 678.03 C 711.25 682.96 712.52 688.41 712.69 693.96 C 715.29 695.72 717.99 697.49 719.84 700.11 C 722.81 704.36 727.84 706.32 731.65 709.68 C 734.72 712.41 739.13 711.80 742.84 713.01 C 746.84 713.92 750.39 717.23 754.71 716.12 C 758.79 715.44 762.89 715.87 766.97 716.33 C 776.71 716.64 785.24 711.45 793.00 706.23 C 796.67 702.93 798.24 698.07 800.64 693.89 C 803.73 689.01 801.83 683.07 801.84 677.67 C 801.41 674.63 800.57 669.61 796.64 669.69 C 797.04 668.68 797.43 667.67 797.84 666.68 C 795.36 664.57 793.11 662.23 790.59 660.20 C 788.07 658.60 785.17 657.63 782.97 655.57 C 779.07 651.84 773.36 651.63 768.49 649.93 C 762.96 648.75 757.75 645.12 751.89 646.59 Z M 406.21 660.95 C 401.40 662.20 398.72 666.76 394.69 669.33 C 389.23 672.81 386.52 678.97 382.00 683.43 C 380.65 683.36 379.31 683.31 377.97 683.25 C 382.65 688.67 377.59 695.73 379.17 702.03 C 383.04 704.67 387.12 708.03 386.33 713.25 C 389.67 713.91 391.89 716.36 393.63 719.13 C 394.11 718.91 395.08 718.47 395.56 718.24 C 398.71 719.95 401.87 721.68 405.39 722.53 C 408.43 723.12 410.27 725.88 412.92 727.23 C 417.47 726.21 422.13 727.49 426.68 726.20 C 430.28 730.20 435.99 726.17 439.39 730.43 C 439.05 729.09 438.73 727.76 438.41 726.44 C 441.97 724.71 446.00 726.59 449.68 725.31 C 449.68 723.73 449.68 722.17 449.71 720.63 C 458.45 717.63 465.01 710.41 468.20 701.84 C 468.92 702.29 469.65 702.76 470.40 703.24 C 470.73 700.36 471.13 697.51 471.68 694.68 C 472.87 693.88 474.07 693.08 475.27 692.28 C 475.07 687.96 475.23 683.63 475.65 679.33 C 473.69 679.35 471.75 679.37 469.80 679.39 C 468.59 675.35 468.03 670.48 464.20 667.95 C 458.95 664.12 453.11 661.20 447.51 657.95 C 444.63 655.95 441.05 657.28 437.88 656.41 C 434.76 655.53 431.55 654.59 428.29 655.28 C 420.79 656.53 413.41 658.52 406.21 660.95 Z M 623.79 679.01 C 629.43 681.00 634.08 675.60 637.04 671.53 C 640.11 667.44 638.29 659.60 632.20 660.47 C 624.92 662.31 620.17 672.45 623.79 679.01 Z M 547.37 662.20 C 544.08 664.28 544.67 669.09 546.57 671.97 C 548.95 675.39 552.32 678.15 556.08 679.95 C 559.23 681.28 562.93 677.91 561.81 674.61 C 561.12 667.87 555.23 658.52 547.37 662.20 Z M 535.73 729.12 C 526.56 731.15 517.36 733.32 508.61 736.77 C 506.27 737.59 506.44 740.60 506.40 742.61 C 506.41 764.39 513.44 785.59 523.57 804.67 C 534.83 826.95 553.57 846.31 577.63 854.32 C 596.59 860.07 617.93 855.93 634.12 844.77 C 649.56 833.73 661.49 818.07 668.71 800.56 C 676.32 782.15 681.96 762.67 682.68 742.67 C 682.88 736.35 683.80 729.31 680.27 723.68 C 662.93 721.21 645.47 720.00 627.97 719.40 C 596.97 718.45 565.96 722.32 535.73 729.12 Z" fill="#fefffc" fill-rule="nonzero" node-id="79" stroke="none" target-height="561.34607" target-width="533.92" target-x="327.547" target-y="321.587"></path><path d="M 547.12 359.05 C 559.37 348.79 576.23 344.79 591.95 346.63 C 603.17 348.04 614.12 351.73 623.89 357.44 C 632.25 362.40 638.88 369.65 645.01 377.09 C 663.68 364.56 690.59 372.85 702.09 391.21 C 707.85 400.68 705.43 412.31 704.95 422.75 C 704.68 432.69 702.93 444.15 694.55 450.64 C 692.77 452.45 690.16 450.91 688.19 450.41 C 676.27 446.04 667.67 436.16 657.13 429.47 C 655.71 428.56 654.03 428.25 652.45 427.79 C 653.20 443.60 652.43 460.52 643.68 474.27 C 641.33 477.59 637.93 482.03 633.29 480.55 C 625.24 477.51 619.99 470.12 615.44 463.19 C 613.79 461.03 612.59 457.96 609.64 457.36 C 607.49 465.92 607.08 474.75 607.41 483.53 C 604.16 484.96 600.67 483.33 597.44 482.67 C 583.29 478.16 569.84 469.08 563.29 455.39 C 560.31 449.65 559.28 443.25 557.99 437.00 C 552.84 447.43 548.72 458.71 540.64 467.35 C 534.92 473.08 528.41 479.05 520.05 480.23 C 511.65 480.48 505.19 473.09 503.36 465.43 C 500.12 453.37 505.19 441.25 510.37 430.56 C 505.32 431.89 501.61 437.12 496.16 436.89 C 488.57 434.48 486.01 426.11 483.47 419.43 C 481.31 412.91 477.99 405.48 481.45 398.83 C 487.52 385.56 503.28 379.23 517.20 380.68 C 523.17 381.03 528.57 384.08 534.55 384.43 C 535.55 374.81 539.49 365.27 547.12 359.05 Z" fill="#ba6b48" fill-rule="nonzero" node-id="81" stroke="none" target-height="140.17303" target-width="229.86606" target-x="477.98697" target-y="344.787"></path><path d="M 814.08 356.87 C 817.77 355.04 821.43 352.33 825.77 352.67 C 823.43 354.19 821.21 355.91 819.21 357.84 C 810.05 367.01 800.89 376.35 793.69 387.20 C 785.92 399.20 777.96 411.19 772.17 424.32 C 766.17 438.00 759.49 451.36 753.21 464.92 C 752.49 466.81 751.13 468.40 749.13 468.99 C 745.49 464.52 747.05 458.43 747.39 453.20 C 750.49 434.47 759.05 417.12 769.39 401.37 C 780.93 383.63 795.85 367.81 814.08 356.87 Z" fill="#050401" fill-rule="nonzero" node-id="83" stroke="none" target-height="116.65399" target-width="80.28003" target-x="745.493" target-y="352.333"></path><path d="M 825.77 352.67 C 829.63 352.29 833.00 355.57 834.25 359.01 C 837.71 368.09 838.01 378.07 836.75 387.63 C 834.63 411.05 825.36 433.67 810.49 451.88 C 800.05 465.52 786.79 477.17 770.93 484.01 C 768.96 480.63 767.28 477.01 764.64 474.07 C 761.37 470.37 756.81 468.24 753.21 464.92 C 759.49 451.36 766.17 438.00 772.17 424.32 C 777.96 411.19 785.92 399.20 793.69 387.20 C 800.89 376.35 810.05 367.01 819.21 357.84 C 821.21 355.91 823.43 354.19 825.77 352.67 Z" fill="#f5cbc0" fill-rule="nonzero" node-id="85" stroke="none" target-height="131.72" target-width="84.79999" target-x="753.213" target-y="352.293"></path><path d="M 356.32 368.36 C 358.57 365.61 362.24 365.53 365.49 365.88 C 365.80 366.28 366.41 367.08 366.72 367.48 C 371.36 373.61 377.37 378.51 382.21 384.49 C 396.03 399.68 406.97 417.19 417.07 435.00 C 423.39 446.01 428.16 457.91 435.64 468.24 C 434.37 470.19 432.88 472.05 430.57 472.77 C 423.61 475.48 419.67 482.44 417.69 489.28 C 402.72 484.67 390.01 474.59 379.19 463.52 C 359.41 442.95 347.45 414.05 350.47 385.35 C 351.41 379.47 352.43 373.09 356.32 368.36 Z" fill="#f6c7ba" fill-rule="nonzero" node-id="87" stroke="none" target-height="123.74698" target-width="88.18704" target-x="347.453" target-y="365.533"></path><path d="M 366.72 367.48 C 376.76 370.73 385.53 376.97 393.80 383.40 C 412.55 399.63 427.21 420.56 436.28 443.63 C 438.76 450.17 440.92 456.93 441.57 463.95 C 441.69 466.72 441.68 470.56 438.53 471.72 C 437.80 470.84 436.36 469.11 435.64 468.24 C 428.16 457.91 423.39 446.01 417.07 435.00 C 406.97 417.19 396.03 399.68 382.21 384.49 C 377.37 378.51 371.36 373.61 366.72 367.48 Z" fill="#070401" fill-rule="nonzero" node-id="89" stroke="none" target-height="104.24002" target-width="74.97299" target-x="366.72" target-y="367.48"></path><path d="M 798.60 518.00 C 807.39 514.44 814.68 508.17 821.96 502.25 C 833.91 513.84 846.79 525.05 854.64 540.01 C 862.61 552.89 864.95 569.33 859.88 583.71 C 856.36 594.08 851.00 604.04 843.24 611.87 C 852.11 621.65 859.79 632.43 867.47 643.15 C 877.04 656.87 883.77 673.81 880.80 690.76 C 879.53 705.51 871.47 718.76 860.65 728.55 C 858.35 730.19 857.25 733.19 854.75 734.47 C 852.64 708.29 841.91 684.03 831.87 660.12 C 829.20 653.76 827.89 646.96 827.00 640.16 C 823.40 617.88 822.07 595.19 816.23 573.31 C 812.37 554.31 806.87 535.57 798.60 518.00 Z" fill="#b1613f" fill-rule="nonzero" node-id="91" stroke="none" target-height="232.21393" target-width="85.173035" target-x="798.6" target-y="502.253"></path><path d="M 325.17 545.17 C 334.04 529.89 348.04 518.71 361.05 507.13 C 367.95 513.32 375.19 519.20 383.36 523.64 C 376.13 539.80 370.00 556.49 365.83 573.72 C 360.28 595.40 358.11 617.73 356.16 639.97 C 355.13 651.56 355.09 663.85 348.83 674.11 C 340.17 692.47 332.64 711.65 329.08 731.71 C 328.64 733.32 328.13 734.93 327.57 736.52 C 321.48 731.11 315.27 725.60 311.28 718.36 C 312.52 717.65 313.77 716.96 315.03 716.25 C 315.15 711.71 318.93 707.61 317.20 703.07 C 315.85 698.68 320.35 694.85 319.15 690.45 C 318.67 686.71 316.04 683.88 314.27 680.72 C 313.73 674.73 315.31 668.79 315.55 662.81 C 313.36 664.43 311.00 665.96 308.13 665.72 C 314.01 648.64 326.16 634.85 336.16 620.13 C 328.65 611.31 321.56 601.52 319.04 590.00 C 314.75 575.00 317.88 558.69 325.17 545.17 Z" fill="#b46643" fill-rule="nonzero" node-id="93" stroke="none" target-height="229.38702" target-width="75.22699" target-x="308.133" target-y="507.133"></path><path d="M 673.44 596.21 C 688.21 588.13 704.47 582.40 721.32 581.04 C 724.59 581.01 728.23 581.75 730.59 584.21 C 732.69 586.87 732.87 591.73 729.83 593.75 C 724.92 595.55 719.65 595.95 714.60 597.16 C 706.27 598.73 698.24 601.53 690.23 604.23 C 702.28 605.76 713.88 610.03 724.61 615.64 C 729.16 618.25 734.05 621.17 736.63 625.93 C 738.32 630.60 734.85 635.19 731.41 638.01 C 728.24 640.79 724.52 637.12 721.47 635.92 C 709.56 628.85 696.43 623.39 682.55 622.07 C 677.19 621.47 671.95 622.89 666.68 623.57 C 659.77 624.48 653.65 615.64 657.63 609.68 C 661.44 603.75 667.37 599.59 673.44 596.21 Z" fill="#050601" fill-rule="nonzero" node-id="95" stroke="none" target-height="59.773987" target-width="84.66693" target-x="653.653" target-y="581.013"></path><path d="M 446.33 596.05 C 445.21 592.09 448.21 588.04 452.07 587.23 C 455.61 586.55 459.28 586.91 462.84 587.43 C 479.93 590.23 496.67 595.53 512.09 603.43 C 516.65 605.89 521.99 608.96 523.05 614.49 C 523.65 620.25 518.53 625.11 513.15 625.99 C 507.03 626.53 500.77 624.88 494.73 626.57 C 480.89 630.00 467.83 636.16 455.87 643.87 C 452.89 645.52 448.87 647.48 445.83 644.88 C 440.91 641.67 440.59 634.01 444.91 630.13 C 456.17 618.73 471.73 613.04 486.71 608.27 C 475.89 605.49 464.92 603.39 454.07 600.80 C 451.21 599.89 447.43 599.31 446.33 596.05 Z" fill="#060602" fill-rule="nonzero" node-id="97" stroke="none" target-height="60.932983" target-width="83.06601" target-x="440.587" target-y="586.547"></path><path d="M 751.89 646.59 C 757.75 645.12 762.96 648.75 768.49 649.93 C 773.36 651.63 779.07 651.84 782.97 655.57 C 785.17 657.63 788.07 658.60 790.59 660.20 C 793.11 662.23 795.36 664.57 797.84 666.68 C 797.43 667.67 797.04 668.68 796.64 669.69 C 800.57 669.61 801.41 674.63 801.84 677.67 C 801.83 683.07 803.73 689.01 800.64 693.89 C 798.24 698.07 796.67 702.93 793.00 706.23 C 785.24 711.45 776.71 716.64 766.97 716.33 C 762.89 715.87 758.79 715.44 754.71 716.12 C 750.39 717.23 746.84 713.92 742.84 713.01 C 739.13 711.80 734.72 712.41 731.65 709.68 C 727.84 706.32 722.81 704.36 719.84 700.11 C 717.99 697.49 715.29 695.72 712.69 693.96 C 712.52 688.41 711.25 682.96 708.67 678.03 C 707.99 677.73 706.61 677.13 705.92 676.84 C 707.57 676.05 709.17 675.16 710.57 673.97 C 709.35 671.95 706.91 669.05 709.53 667.01 C 711.72 665.36 712.65 662.88 713.79 660.51 C 716.04 657.96 718.52 655.44 721.56 653.87 C 731.35 650.28 741.32 646.60 751.89 646.59 Z" fill="#fef1ea" fill-rule="nonzero" node-id="99" stroke="none" target-height="72.106995" target-width="97.81293" target-x="705.92" target-y="645.12"></path><path d="M 406.21 660.95 C 413.41 658.52 420.79 656.53 428.29 655.28 C 431.55 654.59 434.76 655.53 437.88 656.41 C 441.05 657.28 444.63 655.95 447.51 657.95 C 453.11 661.20 458.95 664.12 464.20 667.95 C 468.03 670.48 468.59 675.35 469.80 679.39 C 471.75 679.37 473.69 679.35 475.65 679.33 C 475.23 683.63 475.07 687.96 475.27 692.28 C 474.07 693.08 472.87 693.88 471.68 694.68 C 471.13 697.51 470.73 700.36 470.40 703.24 C 469.65 702.76 468.92 702.29 468.20 701.84 C 465.01 710.41 458.45 717.63 449.71 720.63 C 449.68 722.17 449.68 723.73 449.68 725.31 C 446.00 726.59 441.97 724.71 438.41 726.44 C 438.73 727.76 439.05 729.09 439.39 730.43 C 435.99 726.17 430.28 730.20 426.68 726.20 C 422.13 727.49 417.47 726.21 412.92 727.23 C 410.27 725.88 408.43 723.12 405.39 722.53 C 401.87 721.68 398.71 719.95 395.56 718.24 C 395.08 718.47 394.11 718.91 393.63 719.13 C 391.89 716.36 389.67 713.91 386.33 713.25 C 387.12 708.03 383.04 704.67 379.17 702.03 C 377.59 695.73 382.65 688.67 377.97 683.25 C 379.31 683.31 380.65 683.36 382.00 683.43 C 386.52 678.97 389.23 672.81 394.69 669.33 C 398.72 666.76 401.40 662.20 406.21 660.95 Z" fill="#fef0e8" fill-rule="nonzero" node-id="101" stroke="none" target-height="75.84003" target-width="98.06598" target-x="377.587" target-y="654.587"></path><path d="M 623.79 679.01 C 620.17 672.45 624.92 662.31 632.20 660.47 C 638.29 659.60 640.11 667.44 637.04 671.53 C 634.08 675.60 629.43 681.00 623.79 679.01 Z" fill="#12110c" fill-rule="nonzero" node-id="103" stroke="none" target-height="21.400024" target-width="19.934021" target-x="620.173" target-y="659.6"></path><path d="M 547.37 662.20 C 555.23 658.52 561.12 667.87 561.81 674.61 C 562.93 677.91 559.23 681.28 556.08 679.95 C 552.32 678.15 548.95 675.39 546.57 671.97 C 544.67 669.09 544.08 664.28 547.37 662.20 Z" fill="#13100b" fill-rule="nonzero" node-id="105" stroke="none" target-height="22.76001" target-width="18.852966" target-x="544.08" target-y="658.52"></path><path d="M 308.13 665.72 C 311.00 665.96 313.36 664.43 315.55 662.81 C 315.31 668.79 313.73 674.73 314.27 680.72 C 316.04 683.88 318.67 686.71 319.15 690.45 C 320.35 694.85 315.85 698.68 317.20 703.07 C 318.93 707.61 315.15 711.71 315.03 716.25 C 313.77 716.96 312.52 717.65 311.28 718.36 C 301.39 702.79 300.33 682.52 307.85 665.76 L 308.13 665.72 Z" fill="#ac5d3d" fill-rule="nonzero" node-id="107" stroke="none" target-height="55.546997" target-width="20.013977" target-x="300.333" target-y="662.813"></path><path d="M 209.19 683.95 C 213.57 682.08 218.01 679.75 222.87 679.65 C 228.92 681.09 229.97 688.39 232.00 693.29 C 245.09 726.55 259.04 759.47 271.96 792.79 C 269.45 795.21 267.01 797.72 264.64 800.29 C 266.19 801.40 267.73 802.55 269.29 803.67 C 268.05 805.21 266.83 806.77 265.60 808.33 C 257.89 789.01 249.97 769.76 242.52 750.33 C 238.48 741.35 235.48 731.92 231.17 723.05 C 229.57 719.56 228.11 716.00 226.67 712.45 C 224.37 724.37 218.13 735.00 212.01 745.32 C 208.20 751.01 203.15 755.68 197.75 759.84 C 199.36 766.29 200.85 773.60 197.52 779.79 C 191.93 792.56 175.15 799.65 162.33 793.69 C 157.69 791.48 154.07 787.59 151.71 783.07 C 150.68 779.12 145.85 780.09 142.77 779.61 C 124.71 779.48 106.67 775.37 90.67 766.87 C 91.40 769.92 93.01 772.61 94.67 775.25 C 102.24 792.21 108.68 809.64 116.07 826.68 C 127.27 853.99 139.09 881.03 149.87 908.51 C 154.52 922.16 160.93 935.13 165.53 948.80 L 165.61 949.01 L 163.97 951.89 C 165.67 951.97 167.36 952.07 169.07 952.16 C 164.48 954.21 161.48 958.13 159.85 962.80 C 158.77 961.60 157.84 960.33 157.05 958.97 C 147.99 934.68 137.33 911.03 127.75 886.93 C 122.60 872.81 115.92 859.32 110.56 845.28 C 97.33 813.75 84.55 782.03 71.08 750.60 C 68.71 745.85 71.40 740.28 76.40 738.91 C 120.33 719.79 164.95 702.28 209.19 683.95 Z M 162.28 715.80 C 135.80 726.87 109.24 737.76 82.37 747.89 C 84.45 754.23 90.28 758.29 96.16 760.79 C 111.77 767.43 128.53 771.77 145.53 772.17 C 146.89 771.89 148.25 771.57 149.61 771.23 C 148.41 758.37 159.48 746.76 171.95 745.48 C 179.05 744.35 185.79 747.99 190.92 752.59 C 191.40 752.63 192.37 752.71 192.85 752.75 C 207.13 740.68 216.39 723.49 220.72 705.48 C 220.93 701.16 221.81 696.07 219.03 692.37 C 200.13 700.24 181.40 708.49 162.28 715.80 Z M 169.17 750.48 C 164.55 752.07 160.40 755.00 157.37 758.84 C 153.28 764.48 153.19 772.12 155.19 778.57 C 159.68 787.76 171.21 793.17 180.95 789.13 C 186.91 786.60 191.96 781.68 193.59 775.27 C 195.68 768.96 192.67 762.57 189.40 757.28 C 184.73 751.45 176.45 748.32 169.17 750.48 Z" fill="#050200" fill-rule="nonzero" node-id="109" stroke="none" target-height="283.14703" target-width="203.2533" target-x="68.7067" target-y="679.653"></path><path d="M 162.28 715.80 C 181.40 708.49 200.13 700.24 219.03 692.37 C 221.81 696.07 220.93 701.16 220.72 705.48 C 216.39 723.49 207.13 740.68 192.85 752.75 C 192.37 752.71 191.40 752.63 190.92 752.59 C 185.79 747.99 179.05 744.35 171.95 745.48 C 159.48 746.76 148.41 758.37 149.61 771.23 C 148.25 771.57 146.89 771.89 145.53 772.17 C 128.53 771.77 111.77 767.43 96.16 760.79 C 90.28 758.29 84.45 754.23 82.37 747.89 C 109.24 737.76 135.80 726.87 162.28 715.80 Z" fill="#fd2520" fill-rule="nonzero" node-id="111" stroke="none" target-height="79.80005" target-width="139.4397" target-x="82.3733" target-y="692.373"></path><path d="M 962.52 713.43 C 962.76 709.47 962.65 705.11 964.93 701.68 C 987.20 712.44 1009.69 722.69 1032.07 733.25 C 1044.63 738.24 1056.56 744.63 1069.09 749.68 C 1078.15 754.43 1087.91 757.69 1096.93 762.49 C 1095.79 764.33 1094.92 766.55 1092.88 767.59 C 1074.35 778.43 1052.89 784.37 1031.37 783.81 C 1031.56 777.49 1030.63 770.59 1026.31 765.67 C 1020.17 758.23 1009.40 754.41 1000.13 757.77 C 996.07 758.84 992.63 761.28 989.15 763.55 C 986.83 763.73 985.52 761.39 984.08 759.99 C 973.37 746.53 964.33 730.81 962.52 713.43 Z" fill="#fd2820" fill-rule="nonzero" node-id="113" stroke="none" target-height="82.69299" target-width="134.41003" target-x="962.52" target-y="701.68005"></path><path d="M 226.67 712.45 C 228.11 716.00 229.57 719.56 231.17 723.05 C 226.75 729.72 222.56 736.63 217.11 742.52 C 215.77 744.01 213.73 744.45 212.01 745.32 C 218.13 735.00 224.37 724.37 226.67 712.45 Z" fill="#ed0104" fill-rule="nonzero" node-id="115" stroke="none" target-height="32.867065" target-width="19.160004" target-x="212.013" target-y="712.453"></path><path d="M 535.73 729.12 C 565.96 722.32 596.97 718.45 627.97 719.40 C 645.47 720.00 662.93 721.21 680.27 723.68 C 683.80 729.31 682.88 736.35 682.68 742.67 C 681.96 762.67 676.32 782.15 668.71 800.56 C 661.49 818.07 649.56 833.73 634.12 844.77 C 617.93 855.93 596.59 860.07 577.63 854.32 C 553.57 846.31 534.83 826.95 523.57 804.67 C 513.44 785.59 506.41 764.39 506.40 742.61 C 506.44 740.60 506.27 737.59 508.61 736.77 C 517.36 733.32 526.56 731.15 535.73 729.12 Z M 567.69 730.36 C 549.85 733.28 532.05 737.05 514.87 742.71 C 514.48 763.65 521.71 784.00 531.31 802.35 C 541.19 822.24 557.24 840.05 578.27 848.24 C 596.35 854.87 617.37 850.76 632.45 839.03 C 646.99 827.77 657.64 811.87 664.21 794.83 C 666.47 790.77 667.53 786.23 668.69 781.79 C 673.45 765.64 675.44 748.56 673.73 731.79 C 666.36 729.45 658.65 728.45 650.99 727.60 C 623.29 724.77 595.13 725.44 567.69 730.36 Z" fill="#080301" fill-rule="nonzero" node-id="117" stroke="none" target-height="141.61401" target-width="177.53299" target-x="506.267" target-y="718.453"></path><path d="M 217.11 742.52 C 222.56 736.63 226.75 729.72 231.17 723.05 C 235.48 731.92 238.48 741.35 242.52 750.33 C 240.61 749.16 238.51 748.40 236.32 747.99 C 240.37 767.52 248.32 786.07 257.67 803.63 C 259.93 807.96 261.41 812.88 264.91 816.47 C 266.61 817.61 267.61 816.29 268.27 814.73 C 269.84 818.61 271.37 822.52 273.05 826.36 C 272.53 826.97 271.49 828.20 270.97 828.81 C 269.05 826.71 267.13 824.61 265.17 822.56 C 265.03 828.83 267.44 834.55 270.09 840.08 C 256.76 844.44 246.08 854.80 240.40 867.53 C 232.81 877.73 229.01 890.63 219.39 899.35 C 201.39 915.79 182.87 931.67 165.53 948.80 C 160.93 935.13 154.52 922.16 149.87 908.51 C 139.09 881.03 127.27 853.99 116.07 826.68 C 108.68 809.64 102.24 792.21 94.67 775.25 C 101.05 776.93 107.00 780.01 113.57 780.97 C 126.05 783.25 139.11 786.16 151.71 783.07 C 154.07 787.59 157.69 791.48 162.33 793.69 C 175.15 799.65 191.93 792.56 197.52 779.79 C 200.85 773.60 199.36 766.29 197.75 759.84 C 203.15 755.68 208.20 751.01 212.01 745.32 C 213.73 744.45 215.77 744.01 217.11 742.52 Z" fill="#f8261e" fill-rule="nonzero" node-id="119" stroke="none" target-height="225.74701" target-width="178.38641" target-x="94.666595" target-y="723.053"></path><path d="M 952.60 729.05 C 953.80 727.28 955.03 725.51 956.21 723.72 C 957.55 735.56 964.35 745.56 969.36 756.04 C 967.45 754.37 965.52 752.72 964.09 750.64 C 959.68 743.97 953.53 737.95 952.71 729.56 L 952.60 729.05 Z" fill="#fc080f" fill-rule="nonzero" node-id="121" stroke="none" target-height="32.320007" target-width="16.76001" target-x="952.6" target-y="723.72"></path><path d="M 567.69 730.36 C 595.13 725.44 623.29 724.77 650.99 727.60 C 658.65 728.45 666.36 729.45 673.73 731.79 C 675.44 748.56 673.45 765.64 668.69 781.79 C 667.53 786.23 666.47 790.77 664.21 794.83 C 665.19 791.27 666.35 787.75 666.79 784.08 C 666.07 780.76 662.73 779.01 660.37 776.93 C 645.75 765.19 626.76 759.35 608.07 760.11 C 596.24 760.16 584.97 764.36 574.15 768.71 C 561.89 774.37 550.15 781.57 540.73 791.35 C 537.47 794.91 533.51 797.95 531.31 802.35 C 521.71 784.00 514.48 763.65 514.87 742.71 C 532.05 737.05 549.85 733.28 567.69 730.36 Z" fill="#ab1e24" fill-rule="nonzero" node-id="123" stroke="none" target-height="77.573975" target-width="160.96002" target-x="514.48" target-y="724.773"></path><path d="M 939.95 755.99 C 944.00 747.08 947.64 737.96 952.71 729.56 C 953.53 737.95 959.68 743.97 964.09 750.64 C 965.52 752.72 967.45 754.37 969.36 756.04 C 974.17 761.17 978.43 766.84 983.56 771.69 C 981.91 775.55 980.53 779.69 980.88 783.96 C 982.41 800.49 1002.97 812.63 1017.92 804.57 C 1021.03 803.15 1023.41 800.64 1025.91 798.36 C 1041.67 800.80 1057.31 796.29 1073.04 796.09 C 1072.75 797.80 1072.48 799.52 1072.13 801.23 C 1064.43 817.99 1054.16 833.33 1045.92 849.80 C 1035.47 867.92 1025.99 886.57 1017.36 905.63 C 1010.09 920.60 1002.68 935.59 997.72 951.52 C 984.61 935.76 967.84 923.44 955.52 907.04 C 949.35 899.11 948.59 888.67 943.49 880.23 C 942.32 866.68 937.19 853.03 927.24 843.49 C 920.69 837.71 913.17 832.04 904.25 831.01 C 904.63 829.20 905.09 827.41 905.97 825.80 C 912.63 812.11 919.89 798.72 925.92 784.73 C 930.49 775.09 935.56 765.71 939.95 755.99 Z" fill="#f8281f" fill-rule="nonzero" node-id="125" stroke="none" target-height="221.96008" target-width="168.78699" target-x="904.25305" target-y="729.56"></path><path d="M 327.57 736.52 C 328.13 734.93 328.64 733.32 329.08 731.71 C 329.13 737.21 327.21 742.49 326.99 747.99 C 326.28 770.44 330.13 793.40 340.73 813.41 C 337.79 813.33 334.57 812.83 331.88 814.29 C 329.89 816.35 328.48 819.04 327.81 821.83 C 328.01 824.27 328.99 826.59 329.88 828.87 C 332.16 835.07 338.61 837.99 342.43 843.07 C 341.91 843.44 340.88 844.17 340.36 844.55 C 321.99 830.83 310.00 808.39 310.19 785.31 C 310.79 767.65 320.39 752.13 327.57 736.52 Z" fill="#98472b" fill-rule="nonzero" node-id="127" stroke="none" target-height="112.84009" target-width="32.427002" target-x="310" target-y="731.707"></path><path d="M 855.03 734.33 C 858.20 735.83 858.12 739.97 859.84 742.68 C 865.20 752.72 872.09 762.24 874.37 773.63 C 876.71 786.55 875.52 800.43 869.43 812.21 C 864.05 824.61 851.73 831.76 840.40 837.95 C 838.55 836.29 836.41 834.85 835.08 832.73 C 833.29 830.17 835.64 827.43 836.39 824.96 C 836.03 823.92 835.68 822.89 835.35 821.88 L 835.23 821.56 C 851.43 795.72 857.32 764.52 855.03 734.33 Z" fill="#92462c" fill-rule="nonzero" node-id="129" stroke="none" target-height="103.61395" target-width="43.41388" target-x="833.293" target-y="734.333"></path><path d="M 236.32 747.99 C 238.51 748.40 240.61 749.16 242.52 750.33 C 249.97 769.76 257.89 789.01 265.60 808.33 C 266.48 810.47 267.41 812.57 268.27 814.73 C 267.61 816.29 266.61 817.61 264.91 816.47 C 261.41 812.88 259.93 807.96 257.67 803.63 C 248.32 786.07 240.37 767.52 236.32 747.99 Z" fill="#fd3a33" fill-rule="nonzero" node-id="131" stroke="none" target-height="69.62598" target-width="31.946991" target-x="236.32" target-y="747.987"></path><path d="M 169.17 750.48 C 176.45 748.32 184.73 751.45 189.40 757.28 C 192.67 762.57 195.68 768.96 193.59 775.27 C 191.96 781.68 186.91 786.60 180.95 789.13 C 177.28 787.33 173.35 786.25 169.51 784.93 C 165.88 783.65 163.81 780.04 160.55 778.19 C 158.75 778.07 156.96 778.39 155.19 778.57 C 153.19 772.12 153.28 764.48 157.37 758.84 C 160.40 755.00 164.55 752.07 169.17 750.48 Z M 163.15 763.04 C 163.21 765.17 163.52 767.40 162.80 769.48 C 160.89 774.17 164.84 779.76 169.31 781.27 C 176.01 783.96 181.87 778.41 187.32 775.36 C 188.41 770.55 186.43 765.67 184.43 761.36 C 182.75 761.27 181.07 761.19 179.39 761.12 C 178.75 759.61 178.12 758.13 177.49 756.64 C 171.96 756.49 167.77 760.63 163.15 763.04 Z" fill="#fbd03d" fill-rule="nonzero" node-id="133" stroke="none" target-height="40.81299" target-width="42.492996" target-x="153.187" target-y="748.32"></path><path d="M 163.15 763.04 C 167.77 760.63 171.96 756.49 177.49 756.64 C 178.12 758.13 178.75 759.61 179.39 761.12 C 181.07 761.19 182.75 761.27 184.43 761.36 C 186.43 765.67 188.41 770.55 187.32 775.36 C 181.87 778.41 176.01 783.96 169.31 781.27 C 164.84 779.76 160.89 774.17 162.80 769.48 C 163.52 767.40 163.21 765.17 163.15 763.04 Z" fill="#f9ba2c" fill-rule="nonzero" node-id="135" stroke="none" target-height="27.467041" target-width="27.519989" target-x="160.893" target-y="756.4929"></path><path d="M 574.15 768.71 C 584.97 764.36 596.24 760.16 608.07 760.11 C 626.76 759.35 645.75 765.19 660.37 776.93 C 662.73 779.01 666.07 780.76 666.79 784.08 C 666.35 787.75 665.19 791.27 664.21 794.83 C 657.64 811.87 646.99 827.77 632.45 839.03 C 617.37 850.76 596.35 854.87 578.27 848.24 C 557.24 840.05 541.19 822.24 531.31 802.35 C 533.51 797.95 537.47 794.91 540.73 791.35 C 550.15 781.57 561.89 774.37 574.15 768.71 Z" fill="#f87d77" fill-rule="nonzero" node-id="137" stroke="none" target-height="95.52008" target-width="135.47998" target-x="531.307" target-y="759.3469"></path><path d="M 990.64 769.23 C 993.91 765.71 997.76 762.48 1002.56 761.39 C 1011.16 758.92 1020.28 764.09 1024.73 771.40 C 1031.91 782.84 1022.48 799.41 1009.59 801.07 C 1004.29 802.53 998.92 800.08 994.67 797.08 C 999.36 796.83 1003.81 795.28 1008.15 793.59 C 1009.36 793.16 1010.57 792.73 1011.80 792.32 C 1012.68 792.80 1013.59 793.31 1014.49 793.81 C 1018.56 789.81 1024.13 786.24 1024.93 780.12 C 1022.79 778.80 1020.84 777.19 1019.05 775.45 C 1015.77 772.33 1011.52 770.51 1007.45 768.69 C 1003.32 766.69 1001.09 771.92 998.15 773.77 C 995.19 773.11 992.83 771.20 990.64 769.23 Z" fill="#fbd547" fill-rule="nonzero" node-id="139" stroke="none" target-height="43.613037" target-width="41.26996" target-x="990.6401" target-y="758.92"></path><path d="M 90.67 766.87 C 106.67 775.37 124.71 779.48 142.77 779.61 C 145.85 780.09 150.68 779.12 151.71 783.07 C 139.11 786.16 126.05 783.25 113.57 780.97 C 107.00 780.01 101.05 776.93 94.67 775.25 C 93.01 772.61 91.40 769.92 90.67 766.87 Z" fill="#e50506" fill-rule="nonzero" node-id="141" stroke="none" target-height="19.29303" target-width="61.040405" target-x="90.666595" target-y="766.86694"></path><path d="M 998.15 773.77 C 1001.09 771.92 1003.32 766.69 1007.45 768.69 C 1011.52 770.51 1015.77 772.33 1019.05 775.45 C 1018.68 777.23 1018.33 779.01 1017.99 780.80 C 1015.79 780.29 1013.51 779.97 1011.45 779.04 C 1009.75 777.40 1008.81 775.15 1007.64 773.16 C 1004.23 772.57 999.67 773.63 999.20 777.68 C 998.48 782.33 1002.72 785.05 1004.60 788.73 C 1007.89 789.65 1011.40 788.55 1014.75 788.24 C 1013.75 789.59 1012.76 790.95 1011.80 792.32 C 1010.57 792.73 1009.36 793.16 1008.15 793.59 C 1005.03 793.49 1001.16 794.40 998.93 791.60 C 995.28 787.76 991.47 783.00 991.79 777.40 C 993.05 775.12 996.01 774.91 998.15 773.77 Z" fill="#fabb27" fill-rule="nonzero" node-id="143" stroke="none" target-height="27.707031" target-width="27.583069" target-x="991.4669" target-y="766.693"></path><path d="M 990.64 769.23 C 992.83 771.20 995.19 773.11 998.15 773.77 C 996.01 774.91 993.05 775.12 991.79 777.40 C 991.47 783.00 995.28 787.76 998.93 791.60 C 1001.16 794.40 1005.03 793.49 1008.15 793.59 C 1003.81 795.28 999.36 796.83 994.67 797.08 C 990.05 793.71 986.12 788.56 986.15 782.59 C 985.80 777.71 988.29 773.31 990.64 769.23 Z" fill="#fad032" fill-rule="nonzero" node-id="145" stroke="none" target-height="27.853027" target-width="22.350037" target-x="985.8" target-y="769.227"></path><path d="M 999.20 777.68 C 999.67 773.63 1004.23 772.57 1007.64 773.16 C 1008.81 775.15 1009.75 777.40 1011.45 779.04 C 1013.51 779.97 1015.79 780.29 1017.99 780.80 C 1018.33 779.01 1018.68 777.23 1019.05 775.45 C 1020.84 777.19 1022.79 778.80 1024.93 780.12 C 1024.13 786.24 1018.56 789.81 1014.49 793.81 C 1013.59 793.31 1012.68 792.80 1011.80 792.32 C 1012.76 790.95 1013.75 789.59 1014.75 788.24 C 1011.40 788.55 1007.89 789.65 1004.60 788.73 C 1002.72 785.05 998.48 782.33 999.20 777.68 Z" fill="#f9ca36" fill-rule="nonzero" node-id="147" stroke="none" target-height="21.23999" target-width="26.450073" target-x="998.48" target-y="772.573"></path><path d="M 155.19 778.57 C 156.96 778.39 158.75 778.07 160.55 778.19 C 163.81 780.04 165.88 783.65 169.51 784.93 C 173.35 786.25 177.28 787.33 180.95 789.13 C 171.21 793.17 159.68 787.76 155.19 778.57 Z" fill="#fbdd53" fill-rule="nonzero" node-id="149" stroke="none" target-height="15.106018" target-width="25.76001" target-x="155.187" target-y="778.06696"></path><path d="M 1078.12 783.79 C 1081.39 782.52 1084.51 780.57 1088.11 780.48 C 1083.40 787.23 1081.13 795.37 1076.87 802.31 C 1075.27 801.96 1073.69 801.60 1072.13 801.23 C 1072.48 799.52 1072.75 797.80 1073.04 796.09 C 1057.31 796.29 1041.67 800.80 1025.91 798.36 C 1027.04 796.41 1028.09 794.44 1029.05 792.43 C 1034.04 792.53 1039.07 792.84 1044.01 791.88 C 1055.63 790.49 1067.37 788.63 1078.12 783.79 Z" fill="#eb0106" fill-rule="nonzero" node-id="151" stroke="none" target-height="21.826965" target-width="62.19995" target-x="1025.91" target-y="780.48004"></path><path d="M 805.95 815.36 C 815.33 807.00 821.72 796.11 828.73 785.83 C 829.36 787.13 830.00 788.45 830.64 789.77 C 826.71 801.57 820.61 812.52 813.49 822.67 C 798.72 840.93 778.75 854.49 757.15 863.43 C 742.79 870.13 727.61 874.75 712.47 879.25 C 709.69 876.33 707.09 873.27 704.81 869.97 C 705.85 868.71 706.89 867.45 707.96 866.20 C 723.11 862.48 737.61 856.65 752.01 850.72 C 771.77 842.09 790.80 830.91 805.95 815.36 Z" fill="#ebe3dd" fill-rule="nonzero" node-id="153" stroke="none" target-height="93.425964" target-width="125.82709" target-x="704.813" target-y="785.827"></path><path d="M 352.71 788.47 C 367.81 811.60 388.40 831.20 412.37 845.00 C 424.83 852.67 438.87 857.07 452.51 862.11 C 491.68 873.97 532.51 879.92 573.36 881.53 C 600.01 882.93 626.77 881.69 653.21 878.08 C 656.92 878.75 659.72 881.24 662.00 884.07 C 660.89 885.11 659.79 886.15 658.71 887.21 C 659.28 890.76 660.93 894.00 663.84 896.21 C 653.61 899.48 643.81 903.93 633.47 906.84 C 619.25 910.92 605.24 915.79 590.73 918.71 C 572.68 922.55 554.55 927.13 535.99 927.28 C 507.65 927.80 480.25 919.28 453.40 911.24 C 456.71 905.37 459.17 899.11 462.23 893.12 C 472.79 893.12 484.53 896.03 494.19 890.45 C 493.31 888.59 490.96 888.65 489.31 888.00 C 460.44 880.60 431.68 871.67 405.16 857.84 C 390.81 849.59 377.07 839.55 367.19 826.07 C 359.89 817.09 354.83 806.56 350.92 795.73 C 351.53 793.31 352.13 790.88 352.71 788.47 Z" fill="#ede4dc" fill-rule="nonzero" node-id="155" stroke="none" target-height="139.33295" target-width="312.92" target-x="350.92" target-y="788.467"></path><path d="M 1072.13 801.23 C 1073.69 801.60 1075.27 801.96 1076.87 802.31 C 1071.48 813.39 1065.77 824.31 1060.75 835.55 C 1048.29 862.77 1034.44 889.32 1021.53 916.33 C 1017.12 926.72 1011.56 936.57 1006.84 946.83 C 1004.68 951.08 1003.36 955.80 1000.33 959.57 C 998.87 958.65 997.43 957.77 995.95 956.93 C 996.51 955.11 997.11 953.32 997.72 951.52 C 1002.68 935.59 1010.09 920.60 1017.36 905.63 C 1025.99 886.57 1035.47 867.92 1045.92 849.80 C 1054.16 833.33 1064.43 817.99 1072.13 801.23 Z" fill="#df0408" fill-rule="nonzero" node-id="157" stroke="none" target-height="158.34607" target-width="80.923035" target-x="995.94696" target-y="801.227"></path><path d="M 331.88 814.29 C 334.57 812.83 337.79 813.33 340.73 813.41 C 348.63 829.25 359.44 843.48 371.83 856.09 C 374.12 858.68 377.79 859.76 379.49 862.89 C 374.61 862.61 370.55 859.61 366.13 857.85 C 357.47 853.57 348.64 849.55 340.36 844.55 C 340.88 844.17 341.91 843.44 342.43 843.07 C 338.61 837.99 332.16 835.07 329.88 828.87 C 328.99 826.59 328.01 824.27 327.81 821.83 C 328.48 819.04 329.89 816.35 331.88 814.29 Z" fill="#8c3d24" fill-rule="nonzero" node-id="159" stroke="none" target-height="50.06598" target-width="51.680023" target-x="327.813" target-y="812.827"></path><path d="M 265.17 822.56 C 267.13 824.61 269.05 826.71 270.97 828.81 C 271.49 828.20 272.53 826.97 273.05 826.36 C 274.99 830.51 277.01 834.64 278.20 839.08 C 275.48 839.33 272.76 839.55 270.09 840.08 C 267.44 834.55 265.03 828.83 265.17 822.56 Z" fill="#ee0a0d" fill-rule="nonzero" node-id="161" stroke="none" target-height="17.519958" target-width="13.173004" target-x="265.027" target-y="822.56006"></path><path d="M 835.35 821.88 C 835.68 822.89 836.03 823.92 836.39 824.96 C 835.64 827.43 833.29 830.17 835.08 832.73 C 836.41 834.85 838.55 836.29 840.40 837.95 C 828.60 844.24 817.08 851.05 805.31 857.40 C 816.35 846.52 827.19 835.15 835.35 821.88 Z" fill="#a15035" fill-rule="nonzero" node-id="163" stroke="none" target-height="35.52002" target-width="35.093018" target-x="805.307" target-y="821.88"></path><path d="M 863.33 845.73 C 870.80 839.25 879.63 833.64 889.68 832.60 C 887.91 836.29 886.44 840.13 885.33 844.08 L 886.05 845.43 C 886.60 846.45 887.15 847.49 887.71 848.55 C 883.77 849.91 878.85 848.52 875.69 851.65 C 872.45 848.09 868.43 845.12 863.33 845.73 Z" fill="#433c37" fill-rule="nonzero" node-id="165" stroke="none" target-height="19.05304" target-width="26.346924" target-x="863.333" target-y="832.6"></path><path d="M 294.00 841.05 C 304.99 843.64 315.67 849.76 322.04 859.25 C 326.12 867.25 324.73 877.11 321.05 885.03 C 314.21 898.68 304.75 911.29 292.24 920.24 C 288.81 922.60 284.60 925.12 280.33 923.40 C 272.45 920.60 265.87 915.01 260.36 908.87 C 252.56 900.13 250.03 886.87 254.56 876.01 C 258.97 864.83 268.57 855.45 280.36 852.47 C 286.20 851.03 292.24 852.09 297.95 853.60 C 297.48 849.17 294.81 845.40 294.00 841.05 Z" fill="#3a3330" fill-rule="nonzero" node-id="167" stroke="none" target-height="84.06702" target-width="76.093" target-x="250.027" target-y="841.053"></path><path d="M 856.63 862.55 C 855.80 856.25 858.41 849.71 863.33 845.73 C 868.43 845.12 872.45 848.09 875.69 851.65 C 878.85 848.52 883.77 849.91 887.71 848.55 C 887.15 847.49 886.60 846.45 886.05 845.43 C 891.53 845.19 897.25 843.41 902.57 845.60 C 916.88 851.71 927.59 866.91 926.39 882.72 C 924.99 896.89 912.83 909.04 898.72 910.61 C 888.32 910.57 880.21 902.91 873.33 896.00 C 865.27 886.45 857.91 875.28 856.63 862.55 Z" fill="#3b332f" fill-rule="nonzero" node-id="169" stroke="none" target-height="67.19995" target-width="71.78699" target-x="855.8" target-y="843.413"></path><path d="M 787.92 885.25 C 809.72 873.23 831.75 861.64 853.68 849.85 C 848.37 860.24 848.21 872.79 852.23 883.64 C 857.01 898.35 868.13 910.05 880.73 918.57 C 863.47 934.91 844.40 949.20 824.89 962.72 C 812.92 971.20 800.23 978.59 788.20 986.97 C 781.11 991.68 773.69 995.97 767.33 1001.67 C 769.44 1008.61 771.37 1015.65 774.48 1022.24 C 788.51 1063.67 797.73 1106.89 799.88 1150.65 C 802.67 1189.20 797.29 1227.80 789.28 1265.44 C 781.84 1303.99 771.47 1341.89 761.43 1379.81 C 747.03 1375.77 731.92 1376.24 717.12 1376.49 C 704.76 1376.72 692.45 1377.77 680.11 1378.48 C 680.28 1368.67 678.16 1359.05 676.96 1349.36 C 674.39 1329.52 671.68 1309.31 674.72 1289.36 C 675.64 1282.63 678.55 1276.45 681.73 1270.55 C 683.41 1267.23 684.39 1263.64 685.19 1260.04 C 679.51 1258.04 673.61 1260.65 667.96 1261.51 C 648.23 1265.27 628.13 1267.44 608.04 1267.40 C 586.33 1267.77 564.77 1264.44 543.48 1260.64 C 532.87 1259.01 522.79 1254.44 511.92 1254.57 C 511.39 1256.00 510.61 1257.56 511.63 1259.01 C 516.49 1270.76 529.52 1277.07 533.20 1289.44 C 535.35 1300.36 533.95 1311.61 533.53 1322.65 C 533.08 1339.48 530.60 1356.16 528.68 1372.87 C 528.80 1375.53 525.91 1376.13 523.97 1376.99 C 493.92 1374.11 463.40 1371.79 433.48 1377.17 C 419.43 1319.05 403.00 1261.17 396.83 1201.52 C 392.92 1167.07 397.35 1132.29 405.00 1098.67 C 410.36 1073.64 417.01 1048.75 426.49 1024.99 C 431.65 1018.35 434.27 1010.27 436.84 1002.39 C 434.85 1001.07 432.87 999.75 430.68 998.80 C 407.31 988.89 383.76 979.37 360.83 968.47 C 339.19 957.12 317.21 946.08 297.25 931.89 C 313.85 920.15 327.12 902.85 331.04 882.61 C 331.97 875.05 331.79 867.20 329.49 859.88 C 366.15 878.51 404.21 894.29 442.39 909.56 C 445.76 911.07 450.75 912.01 450.21 916.84 C 451.35 915.01 452.39 913.12 453.40 911.24 C 480.25 919.28 507.65 927.80 535.99 927.28 C 554.55 927.13 572.68 922.55 590.73 918.71 C 605.24 915.79 619.25 910.92 633.47 906.84 C 643.81 903.93 653.61 899.48 663.84 896.21 C 666.43 895.23 668.88 893.92 671.31 892.59 C 690.87 894.55 710.69 893.15 729.80 888.48 C 733.71 896.63 737.51 904.84 741.80 912.80 C 756.33 902.25 772.37 894.13 787.92 885.25 Z" fill="#fdfefa" fill-rule="nonzero" node-id="171" stroke="none" target-height="529.9571" target-width="583.48" target-x="297.253" target-y="849.85297"></path><path d="M 746.16 884.88 C 750.12 883.85 753.81 881.55 757.99 881.64 C 755.15 884.29 751.73 886.31 748.21 887.89 C 746.15 888.32 746.69 886.00 746.16 884.88 Z" fill="#fdfefa" fill-rule="nonzero" node-id="173" stroke="none" target-height="6.7730103" target-width="11.840088" target-x="746.1469" target-y="881.547"></path><path d="M 682.48 873.05 C 691.11 871.29 699.33 868.03 707.96 866.20 C 706.89 867.45 705.85 868.71 704.81 869.97 C 707.09 873.27 709.69 876.33 712.47 879.25 C 696.92 882.88 681.36 886.47 666.03 890.95 C 667.77 891.48 669.53 892.03 671.31 892.59 C 668.88 893.92 666.43 895.23 663.84 896.21 C 660.93 894.00 659.28 890.76 658.71 887.21 C 659.79 886.15 660.89 885.11 662.00 884.07 C 659.72 881.24 656.92 878.75 653.21 878.08 C 663.00 876.65 672.79 875.09 682.48 873.05 Z" fill="#f2ebe3" fill-rule="nonzero" node-id="175" stroke="none" target-height="30.01294" target-width="59.253967" target-x="653.213" target-y="866.2001"></path><path d="M 219.39 899.35 C 229.01 890.63 232.81 877.73 240.40 867.53 C 237.39 875.73 235.75 884.56 237.04 893.29 C 237.81 902.57 242.97 910.56 247.05 918.69 C 233.65 924.68 219.65 929.16 206.39 935.43 C 193.88 941.08 180.80 945.35 168.47 951.40 C 167.51 950.61 166.55 949.83 165.61 949.01 L 165.53 948.80 C 182.87 931.67 201.39 915.79 219.39 899.35 Z" fill="#ce0001" fill-rule="nonzero" node-id="177" stroke="none" target-height="83.867004" target-width="81.51997" target-x="165.533" target-y="867.533"></path><path d="M 943.49 880.23 C 948.59 888.67 949.35 899.11 955.52 907.04 C 967.84 923.44 984.61 935.76 997.72 951.52 C 997.11 953.32 996.51 955.11 995.95 956.93 C 975.39 947.55 955.12 937.48 934.61 927.96 C 930.35 925.47 925.25 924.41 921.37 921.36 C 930.37 913.05 938.73 902.97 941.09 890.63 C 941.99 887.17 941.89 883.48 943.49 880.23 Z" fill="#cf0104" fill-rule="nonzero" node-id="179" stroke="none" target-height="76.70599" target-width="76.346985" target-x="921.373" target-y="880.227"></path><path d="M 422.29 884.04 C 429.24 885.59 436.60 887.47 442.44 891.65 C 435.20 890.91 428.73 887.16 422.29 884.04 Z" fill="#e5e6e4" fill-rule="nonzero" node-id="181" stroke="none" target-height="7.613037" target-width="20.147003" target-x="422.293" target-y="884.04"></path><path d="M 880.73 918.57 C 886.16 922.24 892.09 925.07 898.32 927.08 C 881.41 944.95 862.53 960.75 843.48 976.23 C 842.29 974.41 841.32 972.43 839.77 970.91 C 837.55 970.36 835.27 970.24 833.01 970.07 C 833.48 967.96 833.92 965.85 834.27 963.75 C 832.88 965.20 831.52 966.69 830.19 968.20 C 827.24 967.67 825.71 965.40 824.89 962.72 C 844.40 949.20 863.47 934.91 880.73 918.57 Z" fill="#e9e1db" fill-rule="nonzero" node-id="183" stroke="none" target-height="57.65399" target-width="73.42694" target-x="824.893" target-y="918.573"></path><path d="M 280.96 939.48 C 286.79 937.92 292.17 935.11 297.25 931.89 C 317.21 946.08 339.19 957.12 360.83 968.47 C 383.76 979.37 407.31 988.89 430.68 998.80 C 432.87 999.75 434.85 1001.07 436.84 1002.39 C 434.27 1010.27 431.65 1018.35 426.49 1024.99 C 411.55 1017.73 396.03 1011.69 381.24 1004.09 C 360.27 993.47 339.73 981.97 319.96 969.25 C 306.48 959.97 293.52 949.93 280.96 939.48 Z" fill="#ece4de" fill-rule="nonzero" node-id="185" stroke="none" target-height="93.096985" target-width="155.88" target-x="280.96" target-y="931.893"></path><path d="M 788.20 986.97 C 800.23 978.59 812.92 971.20 824.89 962.72 C 825.71 965.40 827.24 967.67 830.19 968.20 C 831.52 966.69 832.88 965.20 834.27 963.75 C 833.92 965.85 833.48 967.96 833.01 970.07 C 835.27 970.24 837.55 970.36 839.77 970.91 C 841.32 972.43 842.29 974.41 843.48 976.23 C 827.35 988.49 811.13 1000.76 793.56 1010.92 C 787.17 1014.67 780.83 1018.45 774.48 1022.24 C 771.37 1015.65 769.44 1008.61 767.33 1001.67 C 773.69 995.97 781.11 991.68 788.20 986.97 Z" fill="#ece5e0" fill-rule="nonzero" node-id="187" stroke="none" target-height="59.52008" target-width="76.14691" target-x="767.333" target-y="962.72"></path><path d="M 315.09 1143.00 C 322.71 1137.61 332.57 1136.85 341.48 1138.77 C 354.53 1141.81 365.89 1149.20 377.95 1154.72 C 378.20 1158.55 378.01 1162.39 377.79 1166.23 C 363.85 1166.00 350.11 1170.61 338.92 1178.84 C 331.84 1184.21 327.28 1192.24 319.97 1197.39 C 314.69 1201.45 308.21 1203.57 301.69 1204.55 C 292.47 1204.16 283.59 1201.35 274.48 1200.13 C 270.39 1199.48 272.19 1194.59 271.31 1191.71 C 281.36 1192.24 291.89 1190.21 300.00 1183.93 C 303.31 1181.12 306.69 1177.89 307.89 1173.57 C 304.33 1172.49 300.68 1171.73 297.16 1170.49 C 297.93 1158.97 306.04 1149.44 315.09 1143.00 Z" fill="#904124" fill-rule="nonzero" node-id="189" stroke="none" target-height="67.70007" target-width="107.81302" target-x="270.387" target-y="1136.85"></path><path d="M 338.92 1178.84 C 350.11 1170.61 363.85 1166.00 377.79 1166.23 C 377.57 1174.29 377.76 1182.36 378.03 1190.43 C 377.93 1193.88 378.31 1197.49 377.28 1200.87 C 365.95 1211.84 352.88 1221.01 338.71 1227.96 C 331.93 1230.69 324.83 1232.60 317.57 1233.44 C 310.55 1232.81 303.52 1232.59 296.48 1232.48 C 299.04 1230.41 301.65 1228.41 304.24 1226.39 C 293.21 1223.00 282.43 1218.53 273.13 1211.57 C 276.63 1209.39 280.49 1211.84 284.23 1211.24 C 287.93 1210.65 292.24 1210.53 295.00 1207.61 C 296.76 1205.76 299.25 1205.03 301.69 1204.55 C 308.21 1203.57 314.69 1201.45 319.97 1197.39 C 327.28 1192.24 331.84 1184.21 338.92 1178.84 Z" fill="#a85534" fill-rule="nonzero" node-id="191" stroke="none" target-height="67.43994" target-width="105.17401" target-x="273.133" target-y="1166"></path><path d="M 255.25 1189.01 C 260.39 1190.93 265.85 1191.59 271.31 1191.71 C 272.19 1194.59 270.39 1199.48 274.48 1200.13 C 283.59 1201.35 292.47 1204.16 301.69 1204.55 C 299.25 1205.03 296.76 1205.76 295.00 1207.61 C 292.24 1210.53 287.93 1210.65 284.23 1211.24 C 280.49 1211.84 276.63 1209.39 273.13 1211.57 C 265.05 1206.20 258.87 1197.93 255.25 1189.01 Z" fill="#9a4728" fill-rule="nonzero" node-id="193" stroke="none" target-height="22.829956" target-width="46.439987" target-x="255.253" target-y="1189.01"></path><path d="M 378.03 1190.43 C 378.40 1197.13 379.19 1203.83 379.95 1210.52 C 370.95 1219.35 361.09 1227.39 350.07 1233.56 C 346.32 1231.61 342.49 1229.83 338.71 1227.96 C 352.88 1221.01 365.95 1211.84 377.28 1200.87 C 378.31 1197.49 377.93 1193.88 378.03 1190.43 Z" fill="#7f2f17" fill-rule="nonzero" node-id="195" stroke="none" target-height="43.130005" target-width="41.24002" target-x="338.707" target-y="1190.43"></path><path d="M 317.57 1233.44 C 324.83 1232.60 331.93 1230.69 338.71 1227.96 C 342.49 1229.83 346.32 1231.61 350.07 1233.56 C 342.13 1237.81 333.88 1242.41 324.89 1243.69 C 320.51 1241.57 313.71 1244.03 311.36 1238.68 C 311.29 1235.27 315.11 1234.52 317.57 1233.44 Z" fill="#893319" fill-rule="nonzero" node-id="197" stroke="none" target-height="16.070068" target-width="38.773987" target-x="311.293" target-y="1227.96"></path><path d="M 277.19 1238.39 C 284.01 1237.89 290.36 1235.33 296.48 1232.48 C 303.52 1232.59 310.55 1232.81 317.57 1233.44 C 315.11 1234.52 311.29 1235.27 311.36 1238.68 C 313.71 1244.03 320.51 1241.57 324.89 1243.69 C 310.04 1247.49 293.95 1246.08 279.81 1240.20 C 278.83 1239.75 277.95 1239.13 277.19 1238.39 Z" fill="#953b20" fill-rule="nonzero" node-id="199" stroke="none" target-height="15.01001" target-width="47.705994" target-x="277.187" target-y="1232.48"></path><path d="M 511.92 1254.57 C 522.79 1254.44 532.87 1259.01 543.48 1260.64 C 564.77 1264.44 586.33 1267.77 608.04 1267.40 C 628.13 1267.44 648.23 1265.27 667.96 1261.51 C 673.61 1260.65 679.51 1258.04 685.19 1260.04 C 684.39 1263.64 683.41 1267.23 681.73 1270.55 C 681.03 1269.40 680.36 1268.31 679.69 1267.20 C 677.47 1269.15 675.33 1271.16 673.32 1273.33 C 673.43 1274.55 674.15 1276.04 673.05 1277.04 C 667.27 1276.61 661.69 1279.27 656.00 1280.09 C 622.07 1288.91 586.15 1289.36 551.91 1282.01 C 546.29 1280.95 540.75 1279.31 535.03 1279.11 C 539.40 1286.80 548.45 1289.97 555.99 1293.77 C 552.73 1309.17 549.60 1324.60 546.55 1340.04 C 544.29 1353.15 542.36 1366.31 539.97 1379.40 C 534.71 1378.20 529.28 1377.91 523.97 1376.99 C 525.91 1376.13 528.80 1375.53 528.68 1372.87 C 530.60 1356.16 533.08 1339.48 533.53 1322.65 C 533.95 1311.61 535.35 1300.36 533.20 1289.44 C 529.52 1277.07 516.49 1270.76 511.63 1259.01 C 510.61 1257.56 511.39 1256.00 511.92 1254.57 Z" fill="#ede4de" fill-rule="nonzero" node-id="201" stroke="none" target-height="124.960205" target-width="174.574" target-x="510.613" target-y="1254.44"></path><path d="M 679.69 1267.20 C 680.36 1268.31 681.03 1269.40 681.73 1270.55 C 678.55 1276.45 675.64 1282.63 674.72 1289.36 C 671.68 1309.31 674.39 1329.52 676.96 1349.36 C 678.16 1359.05 680.28 1368.67 680.11 1378.48 C 672.83 1379.31 665.52 1380.01 658.37 1381.69 C 653.17 1352.69 647.96 1323.68 643.68 1294.52 C 654.48 1290.59 664.07 1284.11 673.05 1277.04 C 674.15 1276.04 673.43 1274.55 673.32 1273.33 C 675.33 1271.16 677.47 1269.15 679.69 1267.20 Z" fill="#e8e1dc" fill-rule="nonzero" node-id="203" stroke="none" target-height="114.48999" target-width="38.05298" target-x="643.68" target-y="1267.2"></path><path d="M 572.63 1302.19 C 590.77 1304.15 609.19 1304.13 627.19 1300.85 C 630.81 1329.21 635.59 1357.41 638.91 1385.81 C 638.55 1387.19 638.21 1388.59 637.89 1390.01 C 611.75 1388.32 585.56 1389.40 559.39 1389.13 C 562.40 1359.96 567.87 1331.11 572.63 1302.19 Z" fill="#ffffff" fill-rule="nonzero" node-id="205" stroke="none" target-height="89.160034" target-width="79.51996" target-x="559.387" target-y="1300.85"></path><path d="M 435.85 1382.88 C 454.87 1379.67 474.24 1379.85 493.44 1380.72 C 508.79 1382.07 524.37 1383.24 539.12 1388.03 C 538.49 1397.24 538.51 1406.76 535.63 1415.64 C 533.49 1422.23 525.91 1423.37 519.97 1424.08 C 499.12 1425.76 478.01 1425.64 457.33 1422.31 C 451.41 1421.44 445.75 1417.85 443.88 1411.95 C 440.63 1402.45 436.93 1392.88 435.85 1382.88 Z" fill="#413a36" fill-rule="nonzero" node-id="207" stroke="none" target-height="46.089844" target-width="103.267" target-x="435.853" target-y="1379.67"></path><path d="M 703.97 1383.44 C 722.53 1381.96 741.39 1381.73 759.73 1385.16 C 757.31 1394.87 756.05 1405.09 751.63 1414.16 C 745.55 1421.32 735.31 1421.99 726.59 1422.93 C 710.21 1424.16 693.67 1424.55 677.33 1422.63 C 672.21 1421.81 665.85 1420.48 663.65 1415.15 C 660.55 1407.68 660.44 1399.41 659.32 1391.52 C 673.52 1386.04 688.91 1384.56 703.97 1383.44 Z" fill="#423b38" fill-rule="nonzero" node-id="209" stroke="none" target-height="42.819824" target-width="100.412964" target-x="659.32" target-y="1381.7301"></path><path d="M 638.91 1385.81 C 639.24 1385.95 639.92 1386.20 640.25 1386.33 L 639.36 1387.44 C 640.57 1400.84 641.32 1414.93 647.65 1427.11 C 653.57 1438.52 666.37 1444.43 678.69 1445.72 C 691.75 1447.03 704.92 1446.49 718.03 1446.29 C 730.69 1445.25 743.87 1443.96 755.37 1438.17 C 768.71 1431.03 774.31 1415.68 776.29 1401.52 C 776.71 1400.95 777.53 1399.79 777.95 1399.21 C 790.31 1399.56 802.51 1401.85 814.71 1403.68 C 826.40 1405.44 838.07 1407.47 849.61 1410.07 C 850.24 1413.89 851.21 1417.81 850.55 1421.72 C 850.05 1424.88 846.97 1426.59 844.95 1428.75 C 845.35 1430.13 845.73 1431.51 846.16 1432.95 C 844.37 1433.20 842.59 1433.39 840.81 1433.56 C 841.55 1438.15 844.13 1443.13 848.91 1444.53 C 846.65 1445.61 844.45 1446.76 842.25 1447.93 C 842.53 1448.60 843.11 1449.92 843.40 1450.59 C 845.00 1449.27 846.61 1447.96 848.21 1446.65 C 850.37 1447.88 852.05 1449.73 853.89 1451.40 C 860.47 1452.51 866.93 1445.65 873.04 1450.36 C 849.33 1457.87 824.44 1460.84 799.96 1464.84 C 761.52 1470.67 722.69 1473.05 683.92 1474.96 C 628.88 1477.61 573.73 1477.48 518.69 1475.21 C 504.39 1474.88 490.08 1474.11 475.83 1472.77 C 442.43 1470.59 409.03 1467.53 376.07 1461.56 C 355.96 1458.33 335.95 1453.59 317.21 1445.47 C 312.96 1443.29 307.79 1440.15 307.24 1434.96 C 308.40 1430.59 312.59 1427.79 316.33 1425.71 C 330.47 1418.59 346.09 1415.40 361.33 1411.59 C 380.29 1407.12 399.44 1403.28 418.79 1401.03 C 419.03 1400.52 419.51 1399.51 419.75 1399.00 C 422.92 1412.85 427.47 1427.81 439.13 1436.92 C 448.93 1444.52 461.89 1445.84 473.85 1446.73 C 490.64 1447.48 507.59 1448.09 524.24 1445.41 C 534.80 1443.40 545.49 1438.05 550.99 1428.41 C 558.01 1416.57 557.79 1402.39 559.39 1389.13 C 585.56 1389.40 611.75 1388.32 637.89 1390.01 C 638.21 1388.59 638.55 1387.19 638.91 1385.81 Z" fill="#eac9ba" fill-rule="nonzero" node-id="211" stroke="none" target-height="91.79993" target-width="565.8" target-x="307.24" target-y="1385.81"></path><path d="M 849.61 1410.07 C 863.83 1412.93 878.05 1416.27 891.47 1421.89 C 896.04 1423.96 900.84 1426.67 903.35 1431.21 C 904.92 1434.19 902.21 1437.09 900.01 1438.83 C 892.29 1444.99 882.49 1448.20 873.04 1450.36 C 866.93 1445.65 860.47 1452.51 853.89 1451.40 C 852.05 1449.73 850.37 1447.88 848.21 1446.65 C 846.61 1447.96 845.00 1449.27 843.40 1450.59 C 843.11 1449.92 842.53 1448.60 842.25 1447.93 C 844.45 1446.76 846.65 1445.61 848.91 1444.53 C 844.13 1443.13 841.55 1438.15 840.81 1433.56 C 842.59 1433.39 844.37 1433.20 846.16 1432.95 C 845.73 1431.51 845.35 1430.13 844.95 1428.75 C 846.97 1426.59 850.05 1424.88 850.55 1421.72 C 851.21 1417.81 850.24 1413.89 849.61 1410.07 Z" fill="#ebcec0" fill-rule="nonzero" node-id="213" stroke="none" target-height="42.440186" target-width="64.10712" target-x="840.8129" target-y="1410.07"></path></svg>